<svg version="1.1" xmlns="http://www.w3.org/2000/svg" xmlns:xlink="http://www.w3.org/1999/xlink" width="48" height="48"><defs><linearGradient x1="14.80589" y1="15.76589" x2="55.55931" y2="56.51931" gradientUnits="userSpaceOnUse" id="color-1"><stop offset="0" stop-color="#000000" stop-opacity="0.3"></stop><stop offset="1" stop-color="#000000" stop-opacity="0"></stop></linearGradient><filter id="dropshadow-base"><feColorMatrix type="matrix" values="0 0 0 0 0  0 0 0 0 0  0 0 0 0 0  0 0 0 .8 0"></feColorMatrix> <feOffset dx="0" dy="1"></feOffset> <feGaussianBlur stdDeviation="1"></feGaussianBlur> <feComposite in="SourceGraphic"></feComposite></filter><filter id="dropshadow-banner" x="-10%" y="-10%" width="120%" height="130%"><feColorMatrix type="matrix" values="0 0 0 0 0  0 0 0 0 0  0 0 0 0 0  0 0 0 .4 0"></feColorMatrix> <feOffset dx="0" dy="1"></feOffset> <feGaussianBlur stdDeviation="0.5"></feGaussianBlur> <feComposite in="SourceGraphic"></feComposite></filter></defs><g fill="none" fill-rule="nonzero" stroke="none" stroke-width="none" stroke-linecap="butt" stroke-linejoin="miter" stroke-miterlimit="10" stroke-dasharray="" stroke-dashoffset="0" font-family="none" font-weight="none" font-size="none" text-anchor="none" style="mix-blend-mode: normal"><path d="M2,24c0,-12.15026 9.84974,-22 22,-22c12.15026,0 22,9.84974 22,22c0,12.15026 -9.84974,22 -22,22c-12.15026,0 -22,-9.84974 -22,-22z" id="base 1 5" fill="#45d4fb" stroke-width="1"></path><path d="M14.80589,35.30611l0.00977,-17.5862c0,-1.0796 0.86465,-1.95402 1.94425,-1.95402h15.63217c0.5398,0 1.0283,0.21861 1.38186,0.57216l11.83147,11.83147c-1.85973,9.69425 -10.08219,17.12686 -20.15283,17.78329z" fill="url(#color-1)" stroke-width="1"></path><path d="M32.39209,15.76589h-15.63217c-1.0796,0 -1.94425,0.87442 -1.94425,1.95402l-0.00977,17.5862l3.90804,-3.90804h13.67815c1.0796,0 1.95402,-0.87442 1.95402,-1.95402v-11.72413c0,-1.0796 -0.87442,-1.95402 -1.95402,-1.95402zM25.55301,24.55899h-1.95402v-5.86207h1.95402zM25.55301,28.46703h-1.95402v-1.95402h1.95402z" fill="none" stroke-width="0"></path><path d="M34.34611,17.71991v11.72413c0,1.0796 -0.87442,1.95402 -1.95402,1.95402h-13.67815l-3.90804,3.90804l0.00977,-17.5862c0,-1.0796 0.86465,-1.95402 1.94425,-1.95402h15.63217c1.0796,0 1.95402,0.87442 1.95402,1.95402zM25.55301,18.69692h-1.95402v5.86207h1.95402zM25.55301,26.51301h-1.95402v1.95402h1.95402z" fill="#ffffff" stroke-width="0"></path><path d="M2,24c0,-12.15026 9.84974,-22 22,-22c12.15026,0 22,9.84974 22,22c0,12.15026 -9.84974,22 -22,22c-12.15026,0 -22,-9.84974 -22,-22z" id="base 1 1 1" fill="none" stroke-width="1"></path><g fill="#000000" stroke-width="1" font-family="Roboto, sans-serif" font-weight="400" font-size="14" text-anchor="start"></g><rect x="2" y="2" width="44" height="22" fill="none" stroke-width="1"></rect><path d="M2,24v-22h44v22z" fill="none" stroke-width="1"></path><path d="M2,24v-22h44v22z" fill="none" stroke-width="1"></path><path d="M2,24v-22h44v22z" fill="none" stroke-width="1"></path><path d="M2,24v-22h44v22z" fill="none" stroke-width="1"></path></g></svg>